<?xml version="1.0" standalone="no"?>
<!DOCTYPE svg PUBLIC "-//W3C//DTD SVG 20010904//EN"
 "http://www.w3.org/TR/2001/REC-SVG-20010904/DTD/svg10.dtd">
<svg version="1.0" xmlns="http://www.w3.org/2000/svg"
 width="3000.000000pt" height="3000.000000pt" viewBox="0 0 3000.000000 3000.000000"
 preserveAspectRatio="xMidYMid meet">
<metadata>
Created by potrace 1.14, written by Peter Selinger 2001-2017
</metadata>
<g transform="translate(0.000000,3000.000000) scale(0.100000,-0.100000)"
fill="#000000" stroke="none">
<path d="M14635 29833 c-2808 -71 -5489 -910 -7830 -2451 -827 -544 -1592
-1168 -2301 -1877 -399 -399 -689 -719 -1025 -1130 -1858 -2278 -3001 -5067
-3273 -7985 -47 -507 -56 -725 -56 -1399 0 -701 13 -986 71 -1536 249 -2370
1060 -4636 2374 -6630 540 -821 1112 -1526 1815 -2239 1451 -1472 3146 -2598
5080 -3373 381 -153 385 -154 516 -160 242 -12 421 59 582 232 123 132 192
307 192 490 0 115 -23 211 -75 320 -48 100 -93 158 -179 233 -78 69 -148 103
-466 230 -1363 545 -2538 1245 -3655 2176 -309 258 -558 487 -891 820 -763
764 -1358 1518 -1934 2451 -703 1137 -1247 2428 -1574 3730 -79 318 -186 810
-186 860 0 13 167 15 1550 15 l1550 0 0 -1455 0 -1455 168 0 c92 0 790 9 1552
20 762 10 1788 24 2280 30 492 6 919 13 948 16 l52 5 0 4007 0 4007 -438 440
c-241 242 -1284 1293 -2317 2335 -1033 1042 -2062 2080 -2287 2305 l-407 410
156 190 c246 301 506 587 810 895 l282 285 2906 -2907 2905 -2908 2 -4202 3
-4203 3677 -3 3677 -2 43 -63 c94 -138 274 -281 433 -344 124 -49 221 -65 380
-66 120 0 154 4 240 27 168 44 301 116 420 227 278 260 381 646 268 1004 -85
270 -287 493 -545 602 -141 59 -186 67 -368 67 -139 0 -177 -3 -243 -22 -226
-63 -429 -208 -558 -398 l-50 -74 -3199 0 -3200 0 0 3932 0 3933 -737 737
-738 738 1085 1085 1085 1085 707 -707 707 -708 -19 -67 c-68 -243 -37 -521
83 -752 241 -464 768 -683 1267 -525 468 148 787 635 730 1114 -58 488 -405
855 -888 940 -142 25 -267 19 -436 -21 l-68 -17 -809 809 -809 809 0 2272 c0
2158 1 2273 18 2273 9 0 58 5 108 10 194 20 532 40 880 51 388 12 840 3 1278
-26 289 -19 361 -9 528 77 141 72 284 231 337 372 36 98 54 212 48 306 -21
278 -173 504 -422 621 -107 50 -194 65 -485 84 -496 31 -890 39 -1325 28z
m-1905 -3865 l0 -2213 -1182 -1182 -1183 -1183 -1952 1952 c-1074 1074 -1953
1955 -1952 1958 0 7 280 230 450 358 1565 1183 3426 2031 5339 2431 229 48
438 89 463 90 16 1 17 -111 17 -2211z m-6703 -5566 l347 -353 -1060 -1059
-1059 -1059 -90 15 c-116 21 -308 14 -417 -15 -292 -76 -548 -307 -657 -591
-68 -175 -82 -396 -36 -576 89 -352 347 -615 696 -709 125 -33 232 -41 355
-25 252 31 474 152 637 345 75 89 159 259 188 380 28 116 30 303 5 419 l-18
79 1059 1059 c582 582 1063 1057 1068 1056 6 -2 447 -444 982 -983 l972 -980
1 -3342 0 -3343 -82 0 c-46 0 -312 -5 -593 -10 -876 -17 -2194 -40 -2322 -40
l-123 0 0 1450 0 1450 -2099 0 -2100 0 -5 43 c-48 364 -82 1098 -72 1597 20
1110 160 2126 437 3185 367 1400 946 2696 1760 3939 l123 190 878 -885 c483
-486 1034 -1043 1225 -1237z"/>
<path d="M19115 29470 c-344 -73 -610 -280 -761 -595 -91 -189 -126 -380 -105
-570 52 -459 361 -820 806 -942 91 -25 116 -28 275 -28 161 0 183 2 273 27 54
15 132 44 174 63 l77 36 106 -42 c415 -166 931 -409 1342 -632 l188 -102 0
-1472 0 -1473 -1735 0 -1735 0 0 -1882 0 -1883 -48 -29 c-215 -134 -377 -369
-433 -631 -20 -93 -17 -285 5 -380 70 -304 277 -555 562 -683 465 -209 1028
-2 1254 463 75 153 94 239 94 420 0 123 -4 165 -22 235 -26 99 -83 223 -142
311 -57 83 -180 204 -263 258 l-67 43 0 1404 0 1404 1250 0 1250 0 0 -2497 -1
-2498 -1410 -1372 -1410 -1373 -1739 0 -1739 0 -36 56 c-46 71 -173 200 -250
251 -255 171 -553 215 -838 123 -268 -86 -497 -302 -601 -567 -49 -125 -61
-198 -60 -363 1 -185 18 -260 93 -415 125 -255 329 -427 608 -512 78 -23 105
-26 243 -27 130 -1 169 3 244 22 233 59 446 211 577 413 l52 79 1922 0 1922 0
459 447 c252 246 555 541 673 656 l214 208 879 -878 878 -878 0 -2667 0 -2667
1270 -1267 c699 -697 1270 -1273 1270 -1279 0 -13 -306 -317 -525 -521 -1411
-1318 -3074 -2309 -4920 -2930 l-190 -64 -1525 1525 -1525 1525 -1743 0 -1742
0 0 1255 0 1255 2697 0 2698 0 756 -756 756 -756 -20 -72 c-31 -109 -30 -350
1 -466 48 -178 123 -309 247 -435 102 -104 199 -172 318 -222 470 -199 1018 5
1246 463 77 156 107 300 98 482 -23 499 -414 888 -915 909 -79 4 -150 1 -198
-7 l-76 -13 -851 850 c-469 468 -887 878 -931 912 l-79 61 -3348 0 -3349 0 0
-670 0 -670 -1293 0 -1293 0 -49 76 c-63 96 -194 221 -294 280 -294 172 -625
186 -926 39 -260 -128 -445 -361 -517 -653 -33 -130 -30 -321 6 -457 97 -368
386 -636 771 -716 81 -17 263 -15 356 4 256 52 526 238 614 422 l26 55 1289 0
1290 0 0 -1060 0 -1060 2023 0 2022 0 1194 -1194 c945 -945 1190 -1195 1175
-1199 -11 -3 -93 -22 -184 -41 -623 -132 -1156 -211 -1755 -261 -686 -56
-1519 -52 -2240 11 -203 18 -290 14 -390 -17 -244 -74 -418 -250 -497 -499
-19 -63 -23 -95 -22 -200 1 -113 4 -134 34 -222 73 -220 229 -378 452 -462
127 -48 748 -95 1478 -111 498 -12 1294 30 1896 100 1303 151 2603 485 3849
990 1484 600 2861 1439 4090 2493 503 432 1070 995 1520 1512 996 1141 1826
2461 2430 3860 1357 3146 1584 6669 641 9955 -252 881 -564 1686 -967 2500
-619 1252 -1396 2387 -2357 3445 -269 296 -800 814 -1147 1121 -1090 961
-2370 1784 -3707 2385 -196 88 -560 241 -689 289 -76 28 -77 29 -106 89 -92
186 -291 378 -491 472 -207 98 -460 129 -677 84z m3505 -3473 c263 -182 688
-508 960 -736 1135 -955 2105 -2091 2868 -3363 62 -102 112 -189 112 -192 0
-3 -479 -6 -1065 -6 l-1065 0 0 -2659 0 -2658 -62 -41 c-199 -129 -343 -332
-405 -570 -36 -141 -36 -317 1 -457 77 -293 263 -516 540 -646 260 -122 570
-117 831 14 198 98 366 274 453 472 64 146 77 214 76 390 0 133 -4 173 -22
240 -62 222 -208 428 -398 556 l-74 50 2 2177 3 2177 842 3 843 2 46 -97
c1148 -2438 1530 -5154 1099 -7811 -92 -567 -222 -1131 -382 -1662 -31 -102
-56 -192 -55 -200 1 -48 -171 -542 -324 -926 -491 -1235 -1159 -2377 -1998
-3413 -56 -69 -104 -130 -108 -135 -5 -7 -465 447 -1118 1099 l-1110 1110 0
1087 0 1088 623 0 622 0 29 -48 c126 -202 343 -363 573 -423 115 -30 314 -37
423 -15 306 62 576 280 699 564 62 141 75 209 75 392 0 151 -3 173 -28 255
-100 333 -334 570 -656 669 -211 64 -474 47 -666 -43 -151 -71 -317 -213 -403
-345 l-43 -66 -624 0 -624 0 0 1107 0 1108 -1021 1021 -1021 1021 676 659 676
659 0 4364 0 4363 28 -17 c15 -10 92 -63 172 -118z"/>
</g>
</svg>
